<mxfile host="Electron" agent="Mozilla/5.0 (Windows NT 10.0; Win64; x64) AppleWebKit/537.36 (KHTML, like Gecko) draw.io/24.7.8 Chrome/128.0.6613.36 Electron/32.0.1 Safari/537.36" version="24.7.8">
  <diagram name="Page-1" id="4e6osS3HDIHF8bQdEuF2">
    <mxGraphModel dx="2074" dy="1196" grid="1" gridSize="10" guides="1" tooltips="1" connect="1" arrows="1" fold="1" page="1" pageScale="1" pageWidth="827" pageHeight="1169" math="0" shadow="0">
      <root>
        <mxCell id="0" />
        <mxCell id="1" parent="0" />
        <mxCell id="SdlDJViLV_M8OgMAgHYk-1" value="" style="outlineConnect=0;dashed=0;verticalLabelPosition=bottom;verticalAlign=top;align=center;html=1;shape=mxgraph.aws3.lambda_function;fillColor=#F58534;gradientColor=none;" vertex="1" parent="1">
          <mxGeometry x="110" y="280" width="69" height="72" as="geometry" />
        </mxCell>
        <mxCell id="SdlDJViLV_M8OgMAgHYk-3" value="" style="outlineConnect=0;dashed=0;verticalLabelPosition=bottom;verticalAlign=top;align=center;html=1;shape=mxgraph.aws3.lambda_function;fillColor=#F58534;gradientColor=none;" vertex="1" parent="1">
          <mxGeometry x="110" y="180" width="69" height="72" as="geometry" />
        </mxCell>
        <mxCell id="SdlDJViLV_M8OgMAgHYk-4" value="" style="shape=actor;whiteSpace=wrap;html=1;" vertex="1" parent="1">
          <mxGeometry x="400" y="20" width="40" height="60" as="geometry" />
        </mxCell>
        <mxCell id="SdlDJViLV_M8OgMAgHYk-5" value="" style="outlineConnect=0;dashed=0;verticalLabelPosition=bottom;verticalAlign=top;align=center;html=1;shape=mxgraph.aws3.android;fillColor=#205E00;gradientColor=none;" vertex="1" parent="1">
          <mxGeometry x="320" y="150" width="73.5" height="84" as="geometry" />
        </mxCell>
        <mxCell id="SdlDJViLV_M8OgMAgHYk-6" value="" style="shape=actor;whiteSpace=wrap;html=1;" vertex="1" parent="1">
          <mxGeometry x="579" y="20" width="40" height="60" as="geometry" />
        </mxCell>
        <mxCell id="SdlDJViLV_M8OgMAgHYk-8" value="" style="image;aspect=fixed;perimeter=ellipsePerimeter;html=1;align=center;shadow=0;dashed=0;spacingTop=3;image=img/lib/active_directory/not_secure.svg;" vertex="1" parent="1">
          <mxGeometry x="50" y="515" width="44" height="50" as="geometry" />
        </mxCell>
        <mxCell id="SdlDJViLV_M8OgMAgHYk-9" value="" style="image;aspect=fixed;perimeter=ellipsePerimeter;html=1;align=center;shadow=0;dashed=0;spacingTop=3;image=img/lib/active_directory/secure.svg;" vertex="1" parent="1">
          <mxGeometry x="50" y="650" width="32" height="50" as="geometry" />
        </mxCell>
        <mxCell id="SdlDJViLV_M8OgMAgHYk-10" value="" style="shape=datastore;whiteSpace=wrap;html=1;" vertex="1" parent="1">
          <mxGeometry x="119" y="645" width="60" height="60" as="geometry" />
        </mxCell>
        <mxCell id="SdlDJViLV_M8OgMAgHYk-11" value="" style="shape=datastore;whiteSpace=wrap;html=1;" vertex="1" parent="1">
          <mxGeometry x="119" y="510" width="60" height="60" as="geometry" />
        </mxCell>
        <mxCell id="SdlDJViLV_M8OgMAgHYk-13" value="Page" style="html=1;whiteSpace=wrap;strokeColor=none;fillColor=#0079D6;labelPosition=center;verticalLabelPosition=middle;verticalAlign=top;align=center;fontSize=12;outlineConnect=0;spacingTop=-6;fontColor=#FFFFFF;sketch=0;shape=mxgraph.sitemap.page;" vertex="1" parent="1">
          <mxGeometry x="440" y="290" width="120" height="70" as="geometry" />
        </mxCell>
        <mxCell id="SdlDJViLV_M8OgMAgHYk-14" value="Page" style="html=1;whiteSpace=wrap;strokeColor=none;fillColor=#0079D6;labelPosition=center;verticalLabelPosition=middle;verticalAlign=top;align=center;fontSize=12;outlineConnect=0;spacingTop=-6;fontColor=#FFFFFF;sketch=0;shape=mxgraph.sitemap.page;" vertex="1" parent="1">
          <mxGeometry x="440" y="410" width="120" height="70" as="geometry" />
        </mxCell>
        <mxCell id="SdlDJViLV_M8OgMAgHYk-15" value="Page" style="html=1;whiteSpace=wrap;strokeColor=none;fillColor=#0079D6;labelPosition=center;verticalLabelPosition=middle;verticalAlign=top;align=center;fontSize=12;outlineConnect=0;spacingTop=-6;fontColor=#FFFFFF;sketch=0;shape=mxgraph.sitemap.page;" vertex="1" parent="1">
          <mxGeometry x="440" y="530" width="120" height="70" as="geometry" />
        </mxCell>
        <mxCell id="SdlDJViLV_M8OgMAgHYk-16" value="Page" style="html=1;whiteSpace=wrap;strokeColor=none;fillColor=#0079D6;labelPosition=center;verticalLabelPosition=middle;verticalAlign=top;align=center;fontSize=12;outlineConnect=0;spacingTop=-6;fontColor=#FFFFFF;sketch=0;shape=mxgraph.sitemap.page;" vertex="1" parent="1">
          <mxGeometry x="440" y="650" width="120" height="70" as="geometry" />
        </mxCell>
        <mxCell id="SdlDJViLV_M8OgMAgHYk-17" value="Page" style="html=1;whiteSpace=wrap;strokeColor=none;fillColor=#0079D6;labelPosition=center;verticalLabelPosition=middle;verticalAlign=top;align=center;fontSize=12;outlineConnect=0;spacingTop=-6;fontColor=#FFFFFF;sketch=0;shape=mxgraph.sitemap.page;" vertex="1" parent="1">
          <mxGeometry x="440" y="770" width="120" height="70" as="geometry" />
        </mxCell>
        <mxCell id="SdlDJViLV_M8OgMAgHYk-18" value="" style="image;aspect=fixed;html=1;points=[];align=center;fontSize=12;image=img/lib/azure2/intune/Device_Compliance.svg;" vertex="1" parent="1">
          <mxGeometry x="610" y="770" width="62" height="68" as="geometry" />
        </mxCell>
        <mxCell id="SdlDJViLV_M8OgMAgHYk-20" value="Page" style="html=1;whiteSpace=wrap;strokeColor=none;fillColor=#0079D6;labelPosition=center;verticalLabelPosition=middle;verticalAlign=top;align=center;fontSize=12;outlineConnect=0;spacingTop=-6;fontColor=#FFFFFF;sketch=0;shape=mxgraph.sitemap.page;" vertex="1" parent="1">
          <mxGeometry x="440" y="170" width="120" height="70" as="geometry" />
        </mxCell>
      </root>
    </mxGraphModel>
  </diagram>
</mxfile>
